<?xml version="1.0" encoding="UTF-8"?>
<svg id="Layer_2" data-name="Layer 2" xmlns="http://www.w3.org/2000/svg" xmlns:xlink="http://www.w3.org/1999/xlink" viewBox="0 0 183.16 378.04">
  <defs>
    <style>
      .cls-1 {
        fill: #e59500;
      }

      .cls-1, .cls-2, .cls-3, .cls-4, .cls-5 {
        stroke: #700000;
        stroke-miterlimit: 10;
        stroke-width: 2.5px;
      }

      .cls-2 {
        fill: #ffc668;
      }

      .cls-3 {
        fill: url(#linear-gradient-3);
      }

      .cls-4 {
        fill: url(#linear-gradient-2);
      }

      .cls-5 {
        fill: url(#linear-gradient);
      }
    </style>
    <linearGradient id="linear-gradient" x1="91.58" y1="365.78" x2="91.58" y2="331.13" gradientUnits="userSpaceOnUse">
      <stop offset=".34" stop-color="#ffa600"/>
      <stop offset=".34" stop-color="#ffc668"/>
    </linearGradient>
    <linearGradient id="linear-gradient-2" x1="45.42" y1="186.58" x2="77.37" y2="186.58" xlink:href="#linear-gradient"/>
    <linearGradient id="linear-gradient-3" x1="121.14" y1="235.84" x2="149.54" y2="235.84" xlink:href="#linear-gradient"/>
  </defs>
  <g id="mi">
    <g>
      <path class="cls-1" d="m170.29,3.73v340.75h-8.18V3.73c0-1.37,1.11-2.48,2.48-2.48h3.23c1.37,0,2.48,1.11,2.48,2.48Z"/>
      <rect class="cls-2" x="161.12" y="55.81" width="10.16" height="186.83" rx="4.95" ry="4.95"/>
      <path class="cls-1" d="m170.29,368.45v5.86c0,1.37-1.11,2.48-2.48,2.48h-3.23c-1.37,0-2.48-1.11-2.48-2.48v-5.86h8.18Z"/>
      <path class="cls-1" d="m95.67,3.73v340.75h-8.18V3.73c0-1.37,1.11-2.48,2.48-2.48h3.23c1.37,0,2.48,1.11,2.48,2.48Z"/>
      <rect class="cls-2" x="86.54" y="55.81" width="10.16" height="186.83" rx="4.95" ry="4.95"/>
      <path class="cls-1" d="m21.57,3.73v340.75h-8.18V3.73c0-1.37,1.11-2.48,2.48-2.48h3.22c1.37,0,2.48,1.11,2.48,2.48Z"/>
      <rect class="cls-2" x="12.4" y="55.81" width="10.16" height="95.23" rx="4.95" ry="4.95"/>
      <path class="cls-1" d="m21.57,368.45v5.86c0,1.37-1.11,2.48-2.48,2.48h-3.22c-1.37,0-2.48-1.11-2.48-2.48v-5.86h8.18Z"/>
      <rect class="cls-5" x="1.25" y="344.48" width="180.66" height="23.98" rx="5.25" ry="5.25"/>
      <rect class="cls-1" x="39.37" y="338.58" width="31.96" height="5.9"/>
      <rect class="cls-1" x="115.71" y="338.58" width="28.4" height="5.9"/>
      <rect class="cls-1" x="78.53" y="190.75" width="101.99" height="7.52" rx="3.11" ry="3.11"/>
      <rect class="cls-1" x="3.42" y="99.92" width="176.39" height="7.52" rx="1.08" ry="1.08"/>
      <path class="cls-4" d="m71.33,234.92v103.66h-31.96V35.87c0-.71.57-1.28,1.28-1.28h11.63c.71,0,1.28.58,1.28,1.29-.09,13.93-.83,136.52,0,162.4.79,24.56,14.38,34.01,17.23,35.72.32.2.52.55.52.93Z"/>
      <path class="cls-3" d="m144.11,263.7v74.88h-28.4v-204.13c0-.74.6-1.34,1.34-1.34h9.92c.75,0,1.35.61,1.34,1.35-.12,10.86-.9,83.78-.17,100.72.71,16.43,12.99,25.89,15.51,27.66.28.2.45.52.45.87Z"/>
      <rect class="cls-2" x="159.68" y="100.58" width="13.04" height="4.92" rx="2.31" ry="2.31" transform="translate(-24.18 147.7) rotate(-45)"/>
      <rect class="cls-2" x="159.68" y="100.58" width="13.04" height="4.92" rx="2.31" ry="2.31" transform="translate(121.54 -87.34) rotate(45)"/>
      <rect class="cls-2" x="85.1" y="100.58" width="13.04" height="4.92" rx="2.31" ry="2.31" transform="translate(-46.02 94.96) rotate(-45)"/>
      <rect class="cls-2" x="85.1" y="100.58" width="13.04" height="4.92" rx="2.31" ry="2.31" transform="translate(99.69 -34.61) rotate(45)"/>
      <rect class="cls-2" x="10.96" y="101.22" width="13.04" height="4.92" rx="2.31" ry="2.31" transform="translate(-68.19 42.73) rotate(-45)"/>
      <rect class="cls-2" x="10.96" y="101.22" width="13.04" height="4.92" rx="2.31" ry="2.31" transform="translate(78.43 18.01) rotate(45)"/>
      <rect class="cls-2" x="85.32" y="192.05" width="13.04" height="4.92" rx="2.31" ry="2.31" transform="translate(-110.64 121.91) rotate(-45)"/>
      <rect class="cls-2" x="85.32" y="192.05" width="13.04" height="4.92" rx="2.31" ry="2.31" transform="translate(164.44 -7.97) rotate(45)"/>
      <rect class="cls-2" x="159.68" y="192.05" width="13.04" height="4.92" rx="2.31" ry="2.31" transform="translate(-88.86 174.49) rotate(-45)"/>
      <rect class="cls-2" x="159.68" y="192.05" width="13.04" height="4.92" rx="2.31" ry="2.31" transform="translate(186.22 -60.55) rotate(45)"/>
    </g>
  </g>
</svg>