<?xml version="1.0" encoding="UTF-8"?>
<svg id="Layer_2" data-name="Layer 2" xmlns="http://www.w3.org/2000/svg" xmlns:xlink="http://www.w3.org/1999/xlink" viewBox="0 0 143.01 294.58">
  <defs>
    <style>
      .cls-1 {
        fill: #e59500;
      }

      .cls-1, .cls-2, .cls-3, .cls-4, .cls-5 {
        stroke: #700000;
        stroke-miterlimit: 10;
        stroke-width: 2.5px;
      }

      .cls-2 {
        fill: #ffc668;
      }

      .cls-3 {
        fill: url(#linear-gradient-3);
      }

      .cls-4 {
        fill: url(#linear-gradient-2);
      }

      .cls-5 {
        fill: url(#linear-gradient);
      }
    </style>
    <linearGradient id="linear-gradient" x1="71.51" y1="284.77" x2="71.51" y2="257.82" gradientUnits="userSpaceOnUse">
      <stop offset=".34" stop-color="#ffa600"/>
      <stop offset=".34" stop-color="#ffc668"/>
    </linearGradient>
    <linearGradient id="linear-gradient-2" x1="35.6" y1="145.4" x2="60.46" y2="145.4" xlink:href="#linear-gradient"/>
    <linearGradient id="linear-gradient-3" x1="94.5" y1="183.71" x2="116.59" y2="183.71" xlink:href="#linear-gradient"/>
  </defs>
  <g id="si">
    <g>
      <path class="cls-1" d="m132.72,3.18v265.03h-6.36V3.18c0-1.06.86-1.93,1.93-1.93h2.51c1.06,0,1.93.86,1.93,1.93Z"/>
      <rect class="cls-2" x="125.59" y="43.68" width="7.9" height="145.31" rx="3.95" ry="3.95"/>
      <path class="cls-1" d="m132.72,286.85v4.56c0,1.06-.86,1.93-1.93,1.93h-2.51c-1.06,0-1.93-.86-1.93-1.93v-4.56h6.36Z"/>
      <path class="cls-1" d="m74.69,3.18v265.03h-6.36V3.18c0-1.06.86-1.93,1.93-1.93h2.51c1.06,0,1.93.86,1.93,1.93Z"/>
      <rect class="cls-2" x="67.59" y="43.68" width="7.9" height="145.31" rx="3.95" ry="3.95"/>
      <path class="cls-1" d="m17.06,3.18v265.03h-6.36V3.18c0-1.06.86-1.93,1.93-1.93h2.51c1.06,0,1.93.86,1.93,1.93Z"/>
      <rect class="cls-2" x="9.92" y="43.68" width="7.9" height="74.07" rx="3.95" ry="3.95"/>
      <path class="cls-1" d="m17.06,286.85v4.56c0,1.06-.86,1.93-1.93,1.93h-2.51c-1.06,0-1.93-.86-1.93-1.93v-4.56h6.36Z"/>
      <rect class="cls-5" x="1.25" y="268.2" width="140.51" height="18.65" rx="4.09" ry="4.09"/>
      <rect class="cls-1" x="30.9" y="263.62" width="24.85" height="4.59"/>
      <rect class="cls-1" x="90.27" y="263.62" width="22.09" height="4.59"/>
      <rect class="cls-1" x="61.36" y="148.64" width="79.33" height="5.85" rx="2.92" ry="2.92"/>
      <rect class="cls-1" x="2.94" y="77.99" width="137.2" height="5.85" rx=".84" ry=".84"/>
      <path class="cls-4" d="m55.75,182.99v80.63h-24.85V28.17c0-.55.45-1,1-1h9.04c.55,0,1,.45,1,1-.07,10.84-.64,106.18,0,126.31.62,19.1,11.19,26.45,13.4,27.78.25.15.41.43.41.72Z"/>
      <path class="cls-3" d="m112.36,205.38v58.24h-22.09V104.85c0-.58.47-1.05,1.04-1.05h7.72c.58,0,1.05.47,1.05,1.05-.09,8.45-.7,65.16-.13,78.34.55,12.78,10.11,20.13,12.07,21.51.22.15.35.41.35.67Z"/>
      <rect class="cls-2" x="124.47" y="78.5" width="10.14" height="3.82" rx="1.91" ry="1.91" transform="translate(-18.92 115.15) rotate(-45)"/>
      <rect class="cls-2" x="124.47" y="78.5" width="10.14" height="3.82" rx="1.91" ry="1.91" transform="translate(94.81 -68.05) rotate(45)"/>
      <rect class="cls-2" x="66.47" y="78.5" width="10.14" height="3.82" rx="1.91" ry="1.91" transform="translate(-35.91 74.14) rotate(-45)"/>
      <rect class="cls-2" x="66.47" y="78.5" width="10.14" height="3.82" rx="1.91" ry="1.91" transform="translate(77.82 -27.03) rotate(45)"/>
      <rect class="cls-2" x="8.81" y="79.01" width="10.14" height="3.82" rx="1.91" ry="1.91" transform="translate(-53.15 33.51) rotate(-45)"/>
      <rect class="cls-2" x="8.81" y="79.01" width="10.14" height="3.82" rx="1.91" ry="1.91" transform="translate(61.28 13.89) rotate(45)"/>
      <rect class="cls-2" x="66.64" y="149.65" width="10.14" height="3.82" rx="1.91" ry="1.91" transform="translate(-86.17 95.1) rotate(-45)"/>
      <rect class="cls-2" x="66.64" y="149.65" width="10.14" height="3.82" rx="1.91" ry="1.91" transform="translate(128.17 -6.31) rotate(45)"/>
      <rect class="cls-2" x="124.47" y="149.65" width="10.14" height="3.82" rx="1.91" ry="1.91" transform="translate(-69.23 135.99) rotate(-45)"/>
      <rect class="cls-2" x="124.47" y="149.65" width="10.14" height="3.82" rx="1.91" ry="1.91" transform="translate(145.11 -47.21) rotate(45)"/>
    </g>
  </g>
</svg>