<?xml version="1.0" encoding="UTF-8"?>
<svg id="Layer_2" data-name="Layer 2" xmlns="http://www.w3.org/2000/svg" xmlns:xlink="http://www.w3.org/1999/xlink" viewBox="0 0 203.23 419.76">
  <defs>
    <style>
      .cls-1 {
        fill: #e59500;
      }

      .cls-1, .cls-2, .cls-3, .cls-4, .cls-5 {
        stroke: #700000;
        stroke-miterlimit: 10;
        stroke-width: 2.5px;
      }

      .cls-2 {
        fill: #ffc668;
      }

      .cls-3 {
        fill: url(#linear-gradient-3);
      }

      .cls-4 {
        fill: url(#linear-gradient-2);
      }

      .cls-5 {
        fill: url(#linear-gradient);
      }
    </style>
    <linearGradient id="linear-gradient" x1="101.62" y1="406.28" x2="101.62" y2="367.78" gradientUnits="userSpaceOnUse">
      <stop offset=".34" stop-color="#ffa600"/>
      <stop offset=".34" stop-color="#ffc668"/>
    </linearGradient>
    <linearGradient id="linear-gradient-2" x1="50.33" y1="207.17" x2="85.83" y2="207.17" xlink:href="#linear-gradient"/>
    <linearGradient id="linear-gradient-3" x1="134.46" y1="261.91" x2="166.02" y2="261.91" xlink:href="#linear-gradient"/>
  </defs>
  <g id="do">
    <g>
      <path class="cls-1" d="m189.07,4v378.61h-9.09V4c0-1.52,1.23-2.75,2.75-2.75h3.59c1.52,0,2.75,1.23,2.75,2.75Z"/>
      <rect class="cls-2" x="178.88" y="61.87" width="11.29" height="207.59" rx="4.95" ry="4.95"/>
      <path class="cls-1" d="m189.07,409.25v6.51c0,1.52-1.23,2.75-2.75,2.75h-3.59c-1.52,0-2.75-1.23-2.75-2.75v-6.51h9.09Z"/>
      <path class="cls-1" d="m106.16,4v378.61h-9.09V4c0-1.52,1.23-2.75,2.75-2.75h3.59c1.52,0,2.75,1.23,2.75,2.75Z"/>
      <rect class="cls-2" x="96.02" y="61.87" width="11.29" height="207.59" rx="4.95" ry="4.95"/>
      <path class="cls-1" d="m23.83,4v378.61h-9.09V4c0-1.52,1.23-2.75,2.75-2.75h3.58c1.52,0,2.75,1.23,2.75,2.75Z"/>
      <rect class="cls-2" x="13.64" y="61.87" width="11.29" height="105.81" rx="4.95" ry="4.95"/>
      <path class="cls-1" d="m23.83,409.25v6.51c0,1.52-1.23,2.75-2.75,2.75h-3.58c-1.52,0-2.75-1.23-2.75-2.75v-6.51h9.09Z"/>
      <rect class="cls-5" x="1.25" y="382.61" width="200.73" height="26.64" rx="5.84" ry="5.84"/>
      <rect class="cls-1" x="43.61" y="376.06" width="35.51" height="6.55"/>
      <rect class="cls-1" x="128.43" y="376.06" width="31.56" height="6.55"/>
      <rect class="cls-1" x="87.12" y="211.81" width="113.32" height="8.35" rx="3.11" ry="3.11"/>
      <rect class="cls-1" x="3.66" y="110.88" width="195.99" height="8.35" rx="1.21" ry="1.21"/>
      <path class="cls-4" d="m79.11,260.88v115.18h-35.51V39.71c0-.79.64-1.43,1.43-1.43h12.92c.79,0,1.43.65,1.42,1.44-.1,15.48-.92,151.69,0,180.44.88,27.29,15.98,37.79,19.15,39.69.36.22.58.61.58,1.03Z"/>
      <path class="cls-3" d="m159.98,292.86v83.2h-31.56v-226.81c0-.82.67-1.49,1.49-1.49h11.03c.83,0,1.5.68,1.49,1.5-.14,12.07-1,93.09-.19,111.91.79,18.26,14.44,28.76,17.24,30.73.31.22.5.58.5.96Z"/>
      <rect class="cls-2" x="177.28" y="111.61" width="14.49" height="5.46" rx="2.31" ry="2.31" transform="translate(-26.81 163.97) rotate(-45)"/>
      <rect class="cls-2" x="177.28" y="111.61" width="14.49" height="5.46" rx="2.31" ry="2.31" transform="translate(134.9 -96.99) rotate(45)"/>
      <rect class="cls-2" x="94.42" y="111.61" width="14.49" height="5.46" rx="2.31" ry="2.31" transform="translate(-51.08 105.38) rotate(-45)"/>
      <rect class="cls-2" x="94.42" y="111.61" width="14.49" height="5.46" rx="2.31" ry="2.31" transform="translate(110.63 -38.39) rotate(45)"/>
      <rect class="cls-2" x="12.04" y="112.33" width="14.49" height="5.46" rx="2.31" ry="2.31" transform="translate(-75.71 47.34) rotate(-45)"/>
      <rect class="cls-2" x="12.04" y="112.33" width="14.49" height="5.46" rx="2.31" ry="2.31" transform="translate(87.01 20.06) rotate(45)"/>
      <rect class="cls-2" x="94.66" y="213.25" width="14.49" height="5.46" rx="2.31" ry="2.31" transform="translate(-122.88 135.32) rotate(-45)"/>
      <rect class="cls-2" x="94.66" y="213.25" width="14.49" height="5.46" rx="2.31" ry="2.31" transform="translate(182.57 -8.8) rotate(45)"/>
      <rect class="cls-2" x="177.28" y="213.25" width="14.49" height="5.46" rx="2.31" ry="2.31" transform="translate(-98.68 193.74) rotate(-45)"/>
      <rect class="cls-2" x="177.28" y="213.25" width="14.49" height="5.46" rx="2.31" ry="2.31" transform="translate(206.77 -67.22) rotate(45)"/>
    </g>
  </g>
</svg>