<?xml version="1.0" encoding="UTF-8"?>
<svg id="Layer_2" data-name="Layer 2" xmlns="http://www.w3.org/2000/svg" xmlns:xlink="http://www.w3.org/1999/xlink" viewBox="0 0 163.08 336.31">
  <defs>
    <style>
      .cls-1 {
        fill: #e59500;
      }

      .cls-1, .cls-2, .cls-3, .cls-4, .cls-5 {
        stroke: #700000;
        stroke-miterlimit: 10;
        stroke-width: 2.5px;
      }

      .cls-2 {
        fill: #ffc668;
      }

      .cls-3 {
        fill: url(#linear-gradient-3);
      }

      .cls-4 {
        fill: url(#linear-gradient-2);
      }

      .cls-5 {
        fill: url(#linear-gradient);
      }
    </style>
    <linearGradient id="linear-gradient" x1="81.54" y1="325.27" x2="81.54" y2="294.48" gradientUnits="userSpaceOnUse">
      <stop offset=".34" stop-color="#ffa600"/>
      <stop offset=".34" stop-color="#ffc668"/>
    </linearGradient>
    <linearGradient id="linear-gradient-2" x1="40.51" y1="165.99" x2="68.92" y2="165.99" xlink:href="#linear-gradient"/>
    <linearGradient id="linear-gradient-3" x1="107.82" y1="209.78" x2="133.06" y2="209.78" xlink:href="#linear-gradient"/>
  </defs>
  <g id="sol">
    <g>
      <path class="cls-1" d="m151.51,3.45v302.89h-7.27V3.45c0-1.22.98-2.2,2.2-2.2h2.87c1.22,0,2.2.99,2.2,2.2Z"/>
      <rect class="cls-2" x="143.35" y="49.74" width="9.03" height="166.07" rx="4.52" ry="4.52"/>
      <path class="cls-1" d="m151.51,327.65v5.21c0,1.22-.99,2.2-2.2,2.2h-2.87c-1.22,0-2.2-.98-2.2-2.2v-5.21h7.27Z"/>
      <path class="cls-1" d="m85.18,3.45v302.89h-7.27V3.45c0-1.22.98-2.2,2.2-2.2h2.87c1.22,0,2.2.99,2.2,2.2Z"/>
      <rect class="cls-2" x="77.06" y="49.74" width="9.03" height="166.07" rx="4.52" ry="4.52"/>
      <path class="cls-1" d="m19.31,3.45v302.89h-7.27V3.45c0-1.22.99-2.2,2.2-2.2h2.87c1.22,0,2.2.99,2.2,2.2Z"/>
      <rect class="cls-2" x="11.16" y="49.74" width="9.03" height="84.65" rx="4.52" ry="4.52"/>
      <path class="cls-1" d="m19.31,327.65v5.21c0,1.22-.99,2.2-2.2,2.2h-2.87c-1.22,0-2.2-.98-2.2-2.2v-5.21h7.27Z"/>
      <rect class="cls-5" x="1.25" y="306.34" width="160.58" height="21.31" rx="4.67" ry="4.67"/>
      <rect class="cls-1" x="35.14" y="301.1" width="28.4" height="5.24"/>
      <rect class="cls-1" x="102.99" y="301.1" width="25.25" height="5.24"/>
      <rect class="cls-1" x="69.95" y="169.7" width="90.66" height="6.68" rx="3.11" ry="3.11"/>
      <rect class="cls-1" x="3.18" y="88.96" width="156.8" height="6.68" rx=".96" ry=".96"/>
      <path class="cls-4" d="m63.54,208.95v92.14h-28.4V32.02c0-.63.51-1.14,1.14-1.14h10.34c.63,0,1.14.52,1.14,1.15-.08,12.39-.74,121.35,0,144.35.71,21.83,12.78,30.23,15.32,31.75.29.18.46.49.46.82Z"/>
      <path class="cls-3" d="m128.24,234.54v66.56h-25.25V119.65c0-.66.53-1.19,1.19-1.19h8.82c.67,0,1.2.54,1.19,1.2-.11,9.65-.8,74.47-.15,89.53.63,14.6,11.55,23.01,13.79,24.58.25.18.4.46.4.77Z"/>
      <rect class="cls-2" x="142.08" y="89.54" width="11.59" height="4.37" rx="2.18" ry="2.18" transform="translate(-21.55 131.43) rotate(-45)"/>
      <rect class="cls-2" x="142.08" y="89.54" width="11.59" height="4.37" rx="2.18" ry="2.18" transform="translate(108.17 -77.69) rotate(45)"/>
      <rect class="cls-2" x="75.79" y="89.54" width="11.59" height="4.37" rx="2.18" ry="2.18" transform="translate(-40.97 84.55) rotate(-45)"/>
      <rect class="cls-2" x="75.79" y="89.54" width="11.59" height="4.37" rx="2.18" ry="2.18" transform="translate(88.75 -30.82) rotate(45)"/>
      <rect class="cls-2" x="9.88" y="90.11" width="11.59" height="4.37" rx="2.18" ry="2.18" transform="translate(-60.67 38.12) rotate(-45)"/>
      <rect class="cls-2" x="9.88" y="90.11" width="11.59" height="4.37" rx="2.18" ry="2.18" transform="translate(69.86 15.95) rotate(45)"/>
      <rect class="cls-2" x="75.98" y="170.85" width="11.59" height="4.37" rx="2.18" ry="2.18" transform="translate(-98.4 108.5) rotate(-45)"/>
      <rect class="cls-2" x="75.98" y="170.85" width="11.59" height="4.37" rx="2.18" ry="2.18" transform="translate(146.31 -7.14) rotate(45)"/>
      <rect class="cls-2" x="142.08" y="170.85" width="11.59" height="4.37" rx="2.18" ry="2.18" transform="translate(-79.05 155.24) rotate(-45)"/>
      <rect class="cls-2" x="142.08" y="170.85" width="11.59" height="4.37" rx="2.18" ry="2.18" transform="translate(165.67 -53.88) rotate(45)"/>
    </g>
  </g>
</svg>