<?xml version="1.0" encoding="UTF-8"?>
<svg id="Layer_2" data-name="Layer 2" xmlns="http://www.w3.org/2000/svg" xmlns:xlink="http://www.w3.org/1999/xlink" viewBox="0 0 193.19 398.9">
  <defs>
    <style>
      .cls-1 {
        fill: #e59500;
      }

      .cls-1, .cls-2, .cls-3, .cls-4, .cls-5 {
        stroke: #700000;
        stroke-miterlimit: 10;
        stroke-width: 2.5px;
      }

      .cls-2 {
        fill: #ffc668;
      }

      .cls-3 {
        fill: url(#linear-gradient-3);
      }

      .cls-4 {
        fill: url(#linear-gradient-2);
      }

      .cls-5 {
        fill: url(#linear-gradient);
      }
    </style>
    <linearGradient id="linear-gradient" x1="96.6" y1="386.03" x2="96.6" y2="349.46" gradientUnits="userSpaceOnUse">
      <stop offset=".34" stop-color="#ffa600"/>
      <stop offset=".34" stop-color="#ffc668"/>
    </linearGradient>
    <linearGradient id="linear-gradient-2" x1="47.87" y1="196.88" x2="81.6" y2="196.88" xlink:href="#linear-gradient"/>
    <linearGradient id="linear-gradient-3" x1="127.8" y1="248.87" x2="157.78" y2="248.87" xlink:href="#linear-gradient"/>
  </defs>
  <g id="re">
    <g>
      <path class="cls-1" d="m179.68,3.87v359.68h-8.64V3.87c0-1.44,1.17-2.62,2.61-2.62h3.41c1.44,0,2.62,1.17,2.62,2.62Z"/>
      <rect class="cls-2" x="170" y="58.84" width="10.73" height="197.21" rx="4.95" ry="4.95"/>
      <path class="cls-1" d="m179.68,388.85v6.19c0,1.44-1.17,2.61-2.62,2.61h-3.41c-1.44,0-2.61-1.17-2.61-2.61v-6.19h8.64Z"/>
      <path class="cls-1" d="m100.92,3.87v359.68h-8.64V3.87c0-1.44,1.17-2.62,2.61-2.62h3.41c1.44,0,2.62,1.17,2.62,2.62Z"/>
      <rect class="cls-2" x="91.28" y="58.84" width="10.73" height="197.21" rx="4.95" ry="4.95"/>
      <path class="cls-1" d="m22.7,3.87v359.68h-8.64V3.87c0-1.44,1.17-2.62,2.62-2.62h3.4c1.44,0,2.62,1.17,2.62,2.62Z"/>
      <rect class="cls-2" x="13.02" y="58.84" width="10.73" height="100.52" rx="4.95" ry="4.95"/>
      <path class="cls-1" d="m22.7,388.85v6.19c0,1.44-1.17,2.61-2.62,2.61h-3.4c-1.44,0-2.62-1.17-2.62-2.61v-6.19h8.64Z"/>
      <rect class="cls-5" x="1.25" y="363.55" width="190.69" height="25.31" rx="5.55" ry="5.55"/>
      <rect class="cls-1" x="41.49" y="357.32" width="33.73" height="6.23"/>
      <rect class="cls-1" x="122.07" y="357.32" width="29.98" height="6.23"/>
      <rect class="cls-1" x="82.83" y="201.28" width="107.66" height="7.93" rx="3.11" ry="3.11"/>
      <rect class="cls-1" x="3.54" y="105.4" width="186.19" height="7.93" rx="1.14" ry="1.14"/>
      <path class="cls-4" d="m75.22,247.9v109.42h-33.73V37.79c0-.75.61-1.36,1.36-1.36h12.28c.75,0,1.36.61,1.35,1.36-.09,14.71-.87,144.11,0,171.42.84,25.92,15.18,35.9,18.19,37.71.34.21.55.58.55.98Z"/>
      <path class="cls-3" d="m152.05,278.28v79.04h-29.98v-215.47c0-.78.63-1.42,1.41-1.42h10.47c.79,0,1.43.64,1.42,1.43-.13,11.46-.95,88.44-.18,106.31.75,17.34,13.72,27.32,16.38,29.19.3.21.47.55.47.92Z"/>
      <rect class="cls-2" x="168.48" y="106.1" width="13.76" height="5.19" rx="2.31" ry="2.31" transform="translate(-25.49 155.83) rotate(-45)"/>
      <rect class="cls-2" x="168.48" y="106.1" width="13.76" height="5.19" rx="2.31" ry="2.31" transform="translate(128.22 -92.16) rotate(45)"/>
      <rect class="cls-2" x="89.76" y="106.1" width="13.76" height="5.19" rx="2.31" ry="2.31" transform="translate(-48.55 100.17) rotate(-45)"/>
      <rect class="cls-2" x="89.76" y="106.1" width="13.76" height="5.19" rx="2.31" ry="2.31" transform="translate(105.16 -36.5) rotate(45)"/>
      <rect class="cls-2" x="11.5" y="106.78" width="13.76" height="5.19" rx="2.31" ry="2.31" transform="translate(-71.95 45.03) rotate(-45)"/>
      <rect class="cls-2" x="11.5" y="106.78" width="13.76" height="5.19" rx="2.31" ry="2.31" transform="translate(82.72 19.03) rotate(45)"/>
      <rect class="cls-2" x="89.99" y="202.65" width="13.76" height="5.19" rx="2.31" ry="2.31" transform="translate(-116.76 128.61) rotate(-45)"/>
      <rect class="cls-2" x="89.99" y="202.65" width="13.76" height="5.19" rx="2.31" ry="2.31" transform="translate(173.51 -8.38) rotate(45)"/>
      <rect class="cls-2" x="168.48" y="202.65" width="13.76" height="5.19" rx="2.31" ry="2.31" transform="translate(-93.77 184.11) rotate(-45)"/>
      <rect class="cls-2" x="168.48" y="202.65" width="13.76" height="5.19" rx="2.31" ry="2.31" transform="translate(196.49 -63.88) rotate(45)"/>
    </g>
  </g>
</svg>