<?xml version="1.0" encoding="UTF-8"?>
<svg id="Layer_2" data-name="Layer 2" xmlns="http://www.w3.org/2000/svg" xmlns:xlink="http://www.w3.org/1999/xlink" viewBox="0 0 173.12 357.17">
  <defs>
    <style>
      .cls-1 {
        fill: #e59500;
      }

      .cls-1, .cls-2, .cls-3, .cls-4, .cls-5 {
        stroke: #700000;
        stroke-miterlimit: 10;
        stroke-width: 2.5px;
      }

      .cls-2 {
        fill: #ffc668;
      }

      .cls-3 {
        fill: url(#linear-gradient-3);
      }

      .cls-4 {
        fill: url(#linear-gradient-2);
      }

      .cls-5 {
        fill: url(#linear-gradient);
      }
    </style>
    <linearGradient id="linear-gradient" x1="86.56" y1="345.53" x2="86.56" y2="312.8" gradientUnits="userSpaceOnUse">
      <stop offset=".34" stop-color="#ffa600"/>
      <stop offset=".34" stop-color="#ffc668"/>
    </linearGradient>
    <linearGradient id="linear-gradient-2" x1="42.97" y1="176.28" x2="73.15" y2="176.28" xlink:href="#linear-gradient"/>
    <linearGradient id="linear-gradient-3" x1="114.48" y1="222.81" x2="141.3" y2="222.81" xlink:href="#linear-gradient"/>
  </defs>
  <g id="fa">
    <g>
      <path class="cls-1" d="m160.9,3.59v321.82h-7.73V3.59c0-1.29,1.05-2.34,2.34-2.34h3.05c1.29,0,2.34,1.05,2.34,2.34Z"/>
      <rect class="cls-2" x="152.23" y="52.77" width="9.6" height="176.45" rx="4.8" ry="4.8"/>
      <path class="cls-1" d="m160.9,348.05v5.53c0,1.29-1.05,2.34-2.34,2.34h-3.05c-1.29,0-2.34-1.05-2.34-2.34v-5.53h7.73Z"/>
      <path class="cls-1" d="m90.43,3.59v321.82h-7.73V3.59c0-1.29,1.05-2.34,2.34-2.34h3.05c1.29,0,2.34,1.05,2.34,2.34Z"/>
      <rect class="cls-2" x="81.8" y="52.77" width="9.6" height="176.45" rx="4.8" ry="4.8"/>
      <path class="cls-1" d="m20.44,3.59v321.82h-7.73V3.59c0-1.29,1.05-2.34,2.34-2.34h3.04c1.29,0,2.34,1.05,2.34,2.34Z"/>
      <rect class="cls-2" x="11.78" y="52.77" width="9.6" height="89.94" rx="4.8" ry="4.8"/>
      <path class="cls-1" d="m20.44,348.05v5.53c0,1.29-1.05,2.34-2.34,2.34h-3.04c-1.29,0-2.34-1.05-2.34-2.34v-5.53h7.73Z"/>
      <rect class="cls-5" x="1.25" y="325.41" width="170.62" height="22.64" rx="4.96" ry="4.96"/>
      <rect class="cls-1" x="37.25" y="319.84" width="30.18" height="5.57"/>
      <rect class="cls-1" x="109.35" y="319.84" width="26.82" height="5.57"/>
      <rect class="cls-1" x="74.24" y="180.22" width="96.33" height="7.1" rx="3.11" ry="3.11"/>
      <rect class="cls-1" x="3.3" y="94.44" width="166.6" height="7.1" rx="1.02" ry="1.02"/>
      <path class="cls-4" d="m67.43,221.94v97.9h-30.18V33.94c0-.67.54-1.21,1.21-1.21h10.98c.67,0,1.21.55,1.21,1.22-.08,13.16-.78,128.94,0,153.37.75,23.19,13.58,32.12,16.27,33.74.31.19.49.52.49.87Z"/>
      <path class="cls-3" d="m136.17,249.12v70.72h-26.82V127.05c0-.7.57-1.27,1.27-1.27h9.37c.71,0,1.28.58,1.27,1.28-.12,10.26-.85,79.13-.16,95.12.67,15.52,12.27,24.45,14.65,26.12.27.19.42.49.42.82Z"/>
      <rect class="cls-2" x="150.88" y="95.06" width="12.31" height="4.64" rx="2.31" ry="2.31" transform="translate(-22.86 139.56) rotate(-45)"/>
      <rect class="cls-2" x="150.88" y="95.06" width="12.31" height="4.64" rx="2.31" ry="2.31" transform="translate(114.85 -82.52) rotate(45)"/>
      <rect class="cls-2" x="80.44" y="95.06" width="12.31" height="4.64" rx="2.31" ry="2.31" transform="translate(-43.49 89.76) rotate(-45)"/>
      <rect class="cls-2" x="80.44" y="95.06" width="12.31" height="4.64" rx="2.31" ry="2.31" transform="translate(94.22 -32.71) rotate(45)"/>
      <rect class="cls-2" x="10.42" y="95.67" width="12.31" height="4.64" rx="2.31" ry="2.31" transform="translate(-64.43 40.42) rotate(-45)"/>
      <rect class="cls-2" x="10.42" y="95.67" width="12.31" height="4.64" rx="2.31" ry="2.31" transform="translate(74.14 16.98) rotate(45)"/>
      <rect class="cls-2" x="80.65" y="181.45" width="12.31" height="4.64" rx="2.31" ry="2.31" transform="translate(-104.52 115.21) rotate(-45)"/>
      <rect class="cls-2" x="80.65" y="181.45" width="12.31" height="4.64" rx="2.31" ry="2.31" transform="translate(155.37 -7.56) rotate(45)"/>
      <rect class="cls-2" x="150.88" y="181.45" width="12.31" height="4.64" rx="2.31" ry="2.31" transform="translate(-83.95 164.87) rotate(-45)"/>
      <rect class="cls-2" x="150.88" y="181.45" width="12.31" height="4.64" rx="2.31" ry="2.31" transform="translate(175.94 -57.21) rotate(45)"/>
    </g>
  </g>
</svg>